# xmcd CD database file
#
# Track frame offsets:
#	150
#	20621
#	39349
#	71152
#	100256
#	125986
#	154848
#	179603
#	202177
#	223365
#	238979
#	270863
#
# Disc length: 3947 seconds
#
# Revision: 0
# Processed by: cddbd v1.5.2PL0 Copyright (c) Steve Scherf et al.
# Submitted via: CDex 1.70beta2
#
DISCID=be0f690c
DTITLE=Compilation - Wroclaw Industrial Festival [CD1)
DYEAR=2011
DGENRE=Expérimental
TTITLE0=Der Blutharsch And The Infinite Church Of The Leading Hand - ...Of The Sounds From Hell
TTITLE1=Thorofon - Stunde Null (Live)
TTITLE2=Skrol - Dei Irae II
TTITLE3=Untitled - GS
TTITLE4=kakofoNIKT - Untitled
TTITLE5=Minamata - George W.TC
TTITLE6=7JK Sieben Vs Job Karma - Krau
TTITLE7=Pete Hopes Exploding Mind - White Light
TTITLE8=Astrid Monroe - Sunglasses
TTITLE9=Absolute Body Control - Waving Hands
TTITLE10=Clock DVA - Phase IV
TTITLE11=Genevi￩ve Pasquier - Bouge (Live)
EXTD=YEAR: 2011
EXTT0=
EXTT1=
EXTT2=
EXTT3=
EXTT4=
EXTT5=
EXTT6=
EXTT7=
EXTT8=
EXTT9=
EXTT10=
EXTT11=
PLAYORDER=
